<?xml version="1.0" encoding="UTF-8" standalone="no"?>
<!-- Created with Inkscape (http://www.inkscape.org/) -->

<svg
   xmlns:dc="http://purl.org/dc/elements/1.1/"
   xmlns:cc="http://creativecommons.org/ns#"
   xmlns:rdf="http://www.w3.org/1999/02/22-rdf-syntax-ns#"
   xmlns:svg="http://www.w3.org/2000/svg"
   xmlns="http://www.w3.org/2000/svg"
   xmlns:sodipodi="http://sodipodi.sourceforge.net/DTD/sodipodi-0.dtd"
   xmlns:inkscape="http://www.inkscape.org/namespaces/inkscape"
   width="70.989716mm"
   height="24.871317mm"
   viewBox="0 0 70.989716 24.871317"
   version="1.1"
   id="svg3492"
   inkscape:version="0.92.3 (2405546, 2018-03-11)"
   sodipodi:docname="logo.svg">
  <defs
     id="defs3486" />
  <sodipodi:namedview
     id="base"
     pagecolor="#ffffff"
     bordercolor="#666666"
     borderopacity="1.0"
     inkscape:pageopacity="0.0"
     inkscape:pageshadow="2"
     inkscape:zoom="15.839192"
     inkscape:cx="65.714496"
     inkscape:cy="67.186976"
     inkscape:document-units="mm"
     inkscape:current-layer="layer1"
     showgrid="false"
     inkscape:window-width="1366"
     inkscape:window-height="705"
     inkscape:window-x="-8"
     inkscape:window-y="-8"
     inkscape:window-maximized="1" />
  <metadata
     id="metadata3489">
    <rdf:RDF>
      <cc:Work
         rdf:about="">
        <dc:format>image/svg+xml</dc:format>
        <dc:type
           rdf:resource="http://purl.org/dc/dcmitype/StillImage" />
        <dc:title></dc:title>
      </cc:Work>
    </rdf:RDF>
  </metadata>
  <g
     inkscape:label="Layer 1"
     inkscape:groupmode="layer"
     id="layer1"
     transform="translate(-66.558711,-97.088206)">
    <path
       inkscape:connector-curvature="0"
       id="path3752"
       style="fill:#cee87c;fill-opacity:1;fill-rule:nonzero;stroke:none;stroke-width:0.03527778"
       d="m 121.27068,98.424152 c 1.60126,0.85725 1.6062,0.858661 0.47484,2.052818 -0.22084,0.23318 -0.30621,0.45437 -0.32032,0.71437 -0.037,0.68227 -0.49212,1.29117 -1.56598,1.77624 -0.6925,0.31291 -1.3021,0.68015 -1.9491,1.0234 0.0226,0.10196 -0.64417,0.32703 0.0857,0.29069 0.48684,-0.0243 0.98425,0.11501 1.4658,-0.0737 1.59032,-0.1277 3.17958,-0.29915 4.77061,-0.2106 0.387,0.0215 0.57996,0.036 0.59725,0.31326 0.0254,0.41699 0.31503,0.79869 1.32398,0.78705 0.26917,-0.003 0.56832,0.0769 0.43638,0.23953 -0.31221,0.38524 0.21132,0.37607 0.6096,0.47449 0.50483,0.12453 0.48437,0.30656 -0.0526,0.47131 -0.32138,0.0984 -0.68051,0.17216 -0.95708,0.29916 -0.33373,0.15346 -1.07562,0.23036 -0.85902,0.51788 0.22472,0.29809 0.89677,0.39158 1.53177,0.33231 0.50552,-0.0473 1.00717,-0.15628 1.49577,-0.26176 0.42722,-0.0921 0.53728,0.0547 0.68086,0.19403 0.78599,0.46567 1.83868,0.27834 2.84551,0.20426 0.31221,0.58667 1.30034,0.57891 2.19745,0.62582 0.37007,0.019 0.56409,0.0681 0.52811,0.27729 -0.0381,0.40322 -0.35525,0.75988 -0.7874,1.09749 -0.14817,0.18274 -0.24977,0.37289 -0.37959,0.55809 -0.0963,0.13723 -0.79022,0.28505 0.037,0.42687 0.46743,0.0801 0.39441,0.54786 -0.0914,0.58384 -1.36489,0.1016 -0.50906,0.53658 -0.67204,0.81033 -0.83114,0.35243 -1.82633,0.4632 -2.77742,0.59055 -3.3154,0.4445 -6.52215,1.13983 -9.82204,1.61502 -0.96378,0.13864 -1.9244,0.32597 -2.89524,0.39793 -4.29154,0.31821 -8.2871,1.28059 -12.3123,2.15124 -3.39231,0.73343 -6.698896,1.60514 -10.066513,2.3816 -3.610681,0.83221 -7.13352,1.77942 -10.685639,2.68817 -0.866775,0.0346 -1.851731,0.45861 -2.539295,-0.10089 -0.06279,-0.45015 -0.37218,-0.71332 -1.352902,-0.74966 -0.673453,-0.0247 -1.545167,-0.007 -1.879953,-0.45332 -0.759803,-0.68474 -0.876925,-0.70132 -2.330088,-0.51611 -1.286651,0.16404 -2.458402,0.10901 -3.297625,-0.45473 -0.68834,-0.12383 -1.563688,0.0914 -2.134164,-0.24483 -0.112325,-0.0395 -0.195686,-0.0924 -0.251249,-0.1584 -0.05263,-0.13264 0.04935,-0.28575 -0.126082,-0.4011 -0.149084,-0.10055 -0.28,-0.20814 -0.415749,-0.31292 -0.378672,-0.18238 -1.181665,-0.0169 -1.296035,-0.41416 -0.178188,-0.0649 -0.320393,-0.20108 -0.216077,-0.27199 0.872032,-0.59443 0.884414,-1.36419 1.760856,-1.96885 0.975924,-0.67275 1.736336,-1.43052 2.906536,-2.02918 0.511951,-0.57432 1.542026,-0.90876 2.264551,-1.37689 0.09165,-0.0346 0.189476,-0.0755 0.181221,-0.0822 -0.108196,-0.0893 0.08541,-0.004 -0.130915,0.0145 -0.08957,0.0384 -0.169228,0.0734 -0.251214,0.11218 -0.206304,0.0847 -0.369605,0.18838 -0.550544,0.28363 -0.895315,0.37783 -1.368672,0.1778 -1.653928,-0.27834 0.101988,-0.77082 0.552591,-1.46614 1.627046,-2.06763 0.43314,-0.24236 0.852734,-0.55351 1.009826,-0.86042 0.285539,-0.55916 0.895315,-0.9899 1.466251,-1.4732 1.002101,-0.84843 2.449512,-1.33562 3.883907,-1.86867 0.3048,-0.11324 0.657578,-0.18662 0.98813,-0.27834 0.55245,-0.22542 1.559631,0.14958 1.818922,-0.46355 2.893836,-1.12183 5.673372,-2.32516 8.942917,-3.13831 2.1971,-0.54681 4.136673,-1.41252 6.391981,-1.9244 2.281768,-0.517527 4.496508,-1.158172 6.943018,-1.373013 0.91969,-0.128059 1.83868,-0.269875 2.77495,-0.209198 0.26282,0.488598 -0.77787,0.246239 -0.88865,0.4953 0.38877,-0.173214 0.9585,-0.169686 1.40194,-0.351366 0.58526,-0.150989 1.16382,-0.312209 1.74414,-0.444853 -0.6343,0.02011 -1.36243,0.498828 -1.93252,3.52e-4 0.013,-0.07408 0.0233,-0.14852 0.0296,-0.222956 0.001,-0.03669 0.003,-0.07373 0.004,-0.110772 1.21602,-0.421922 2.56752,-0.625828 3.9176,-0.724958 2.31563,-0.170039 4.65631,-0.422628 6.93455,-0.135114 0.1143,0.03775 0.22613,0.07761 0.33514,0.119591 l -0.003,-0.0025 c 0.43462,0.335492 0.2487,0.860778 1.0354,1.08832" />
    <path
       inkscape:connector-curvature="0"
       id="path5410"
       style="fill:#446b0d;fill-opacity:1;fill-rule:nonzero;stroke:none;stroke-width:0.03527778"
       d="m 113.08095,117.32563 c 0.70203,-0.0399 1.14053,-0.48507 1.33491,-1.13524 0.16722,-0.55774 0.1337,-1.14159 0.0991,-1.71838 -0.1143,-1.86972 -0.24024,-3.73874 -0.3302,-5.60987 -0.01,-0.20391 -0.2727,-0.58067 0.22048,-0.66181 1.20897,2.19992 2.14419,4.51273 3.09598,6.8199 0.30057,0.72954 0.53552,1.74554 1.58362,1.56139 1.10843,-0.19544 1.00295,-1.27564 1.05551,-2.11243 0.10901,-1.72438 0.17921,-3.45264 0.22049,-5.18054 0.0381,-1.5868 -0.0437,-3.16689 -0.45579,-4.71629 -0.16969,-0.63817 -0.13335,-1.47743 -1.04775,-1.47073 -0.94862,0.007 -0.8696,0.89218 -0.97367,1.51307 -0.29069,1.7346 -0.54927,3.47556 -0.70767,5.26697 -1.1116,-1.52153 -1.70356,-3.2505 -2.49061,-4.88315 -0.20814,-0.4318 -0.37324,-0.89112 -0.63112,-1.29046 -0.508,-0.78493 -1.06257,-0.82444 -1.79211,-0.22437 -0.63147,0.51894 -0.68333,1.2573 -0.72813,1.96321 -0.18627,2.92347 -0.27376,5.85152 -0.25647,8.78205 0.004,0.72672 0.0773,1.44639 0.35172,2.11984 0.25682,0.62971 0.75035,1.01671 1.45168,0.97684" />
    <path
       inkscape:connector-curvature="0"
       id="path5412"
       style="fill:#446b0d;fill-opacity:1;fill-rule:nonzero;stroke:none;stroke-width:0.03527778"
       d="m 72.186385,114.68721 c -0.08749,0.10865 -0.239501,0.16615 -0.613904,0.41522 -0.396875,-2.97357 -0.91059,-5.7016 0.11878,-8.42328 0.138924,-0.36759 0.20948,-0.85478 0.670842,-0.9338 0.521865,-0.0896 0.805039,0.36265 1.06934,0.71543 0.206728,0.27587 0.394406,0.60995 0.457095,0.94298 0.502708,2.67229 0.02935,5.12939 -1.702153,7.28345 z m 3.578084,-5.70371 c -0.01792,-0.50518 -0.0083,-1.01353 -0.05927,-1.51518 -0.133385,-1.31199 -0.708025,-2.42182 -1.674283,-3.30553 -1.649236,-1.50883 -3.403071,-1.42064 -4.931728,0.21202 -2.44355,2.61091 -3.281397,7.54627 -1.81931,10.82745 0.719632,1.61431 1.993618,2.56434 3.739304,2.70369 1.695696,0.13511 2.693669,-0.96379 3.417146,-2.32551 1.094563,-2.06093 1.481808,-4.27849 1.328138,-6.59694" />
    <path
       inkscape:connector-curvature="0"
       id="path5414"
       style="fill:#446b0d;fill-opacity:1;fill-rule:nonzero;stroke:none;stroke-width:0.03527778"
       d="m 80.68713,106.03957 c -0.147108,-0.83715 -0.322792,-1.67711 -0.436739,-2.52554 -0.1397,-1.04281 0.112536,-1.37407 1.155347,-1.5808 0.326673,-0.0649 0.668161,-0.055 1.002948,-0.0797 v 3.5e-4 -3.5e-4 c 0.268463,-0.0409 0.503766,-0.0106 0.618772,0.27588 0.161572,0.0279 0.262114,0.12206 0.299861,0.28504 0.909814,0.70732 1.016353,0.91722 0.734836,1.79282 -0.01411,0.0522 -0.0314,0.10548 -0.05292,0.15981 -0.801158,1.20297 -1.319389,1.4679 -3.322108,1.67251 z m 3.918656,5.25674 c 0.299861,0.65087 0.498827,1.35925 0.989188,1.9117 0.277284,0.31256 0.625123,0.44097 1.03752,0.33479 0.440972,-0.1136 0.598664,-0.45897 0.638528,-0.86219 0.02363,-0.23531 0.01341,-0.48401 -0.03493,-0.71544 -0.347482,-1.66793 -0.839959,-3.30094 -2.163581,-4.45911 -0.611717,-0.53516 -0.419806,-0.93662 -0.144287,-1.45027 -0.01446,-0.32102 -0.06456,-0.65299 0.269523,-0.86536 0.06562,-0.0624 0.07232,-0.13088 0.02046,-0.20496 -0.116064,-1.14794 -0.705203,-2.15301 -0.981428,-3.25262 -0.451202,-0.127 -0.7493,-0.4191 -0.917575,-0.85266 -1.114777,-0.78811 -2.301875,-0.59796 -3.423355,-0.11501 -1.11372,0.47978 -1.914102,1.41888 -1.68275,2.86139 0.159103,0.99095 0.158044,2.014 0.160867,3.0226 0.0088,2.74461 0.100541,5.48181 0.505177,8.20031 0.0635,0.42545 0.131586,0.85549 0.256823,1.26542 0.169333,0.55456 0.539044,0.93027 1.163108,0.86889 0.6223,-0.0614 0.934508,-0.49213 0.967669,-1.07597 0.04022,-0.71791 0.02364,-1.44039 0.0032,-2.16041 -0.04374,-1.53071 -0.105833,-3.06035 -0.161219,-4.60269 0.06033,-0.0243 0.144286,-0.0755 0.233892,-0.091 0.09278,-0.0159 0.193322,-0.008 0.287161,0.008 1.376186,0.23212 2.383013,0.94403 2.976033,2.23449" />
    <path
       inkscape:connector-curvature="0"
       id="path5416"
       style="fill:#446b0d;fill-opacity:1;fill-rule:nonzero;stroke:none;stroke-width:0.03527778"
       d="m 104.91802,108.63636 c -0.56091,-0.0684 -1.13382,-0.037 -1.83374,-0.0526 0.18204,-1.95827 0.58209,-3.81988 1.20263,-5.66455 0.66886,1.62525 1.07244,3.2833 1.29892,4.98687 0.072,0.54045 -0.043,0.80645 -0.66781,0.73025 z m 1.21109,-5.71747 c -0.16828,-0.74471 -0.42369,-1.47955 -0.88265,-2.11314 -0.71931,-0.992007 -1.62948,-0.983893 -2.30152,0.0444 -0.47484,0.72567 -0.77258,1.54058 -1.07492,2.35056 -1.03434,2.76896 -1.39805,5.67091 -1.70144,8.58344 -0.12453,1.19203 -0.284341,2.38407 -0.198971,3.5881 0.0314,0.43745 0.06138,0.9264 0.611011,0.99589 0.53516,0.0677 0.74154,-0.37888 0.87242,-0.79481 0.21555,-0.68438 0.38629,-1.38324 0.57044,-2.07786 0.14711,-0.55351 0.15064,-1.20897 0.46532,-1.6383 0.35736,-0.48718 1.07103,-0.0621 1.61219,-0.21307 0.22931,-0.0642 0.47343,-0.0769 0.71191,-0.10372 1.07421,-0.1203 1.07456,-0.11889 1.12571,1.00788 0.007,0.14394 0.0106,0.28787 0.0159,0.4318 l -0.0452,0.005 c 0.0624,0.52212 0.0624,1.06187 0.20249,1.56246 0.17286,0.6163 0.6343,0.96238 1.3074,0.86783 0.60783,-0.0857 0.94227,-0.49354 0.95532,-1.08444 0.0127,-0.57115 -0.01,-1.15852 -0.12771,-1.7152 -0.68439,-3.23674 -1.38818,-6.46959 -2.11772,-9.69681" />
    <path
       inkscape:connector-curvature="0"
       id="path5418"
       style="fill:#446b0d;fill-opacity:1;fill-rule:nonzero;stroke:none;stroke-width:0.03527778"
       d="m 92.010944,116.77671 c 2.179462,1.66088 4.725812,0.75036 5.335412,-1.91453 0.259291,-1.13488 0.257878,-2.28776 0.161218,-3.44134 -0.118533,-1.41182 -0.842433,-2.04647 -2.262365,-2.00061 -0.95391,0.0307 -1.566333,0.52459 -1.611487,1.29964 -0.04233,0.72213 0.356659,1.15464 1.337027,1.38359 0.276577,0.0646 0.5715,0.005 0.634294,0.40746 0.103716,0.66746 -0.508,2.17452 -0.95391,2.29517 -0.517877,0.1397 -1.258007,-0.4833 -1.643945,-1.38959 -0.07549,-0.17674 -0.143228,-0.35772 -0.195086,-0.54222 -0.310092,-1.11231 -0.572911,-2.23308 -0.620536,-3.39407 -0.06597,-1.4605 0.147814,-2.87514 0.754944,-4.21217 0.625829,-1.37866 0.943681,-1.50812 2.307166,-0.95779 0.362305,0.14605 0.733073,0.39299 1.037521,-10e-4 0.320321,-0.41451 0.106186,-0.81315 -0.19685,-1.16134 -0.985663,-1.13207 -2.734029,-1.26648 -3.889728,-0.28046 -0.782461,0.66816 -1.317978,1.52541 -1.728964,2.45498 -1.431925,3.23673 -1.113014,6.46218 0.123119,9.66293 0.280459,0.72637 0.788106,1.31622 1.41217,1.79141" />
    <path
       inkscape:connector-curvature="0"
       id="path5420"
       style="fill:#446b0d;fill-opacity:1;fill-rule:nonzero;stroke:none;stroke-width:0.03527778"
       d="m 135.90955,113.43061 c -1.04563,0.78246 -1.31762,0.6918 -1.74554,-0.58102 -0.41699,-1.23861 -0.60854,-2.52025 -0.60008,-3.82941 -0.0896,-1.64394 0.0434,-3.26672 0.49177,-4.85563 0.41275,-1.46085 0.41663,-1.45944 1.98262,-1.64042 0.64135,-0.0741 0.91192,-0.56373 0.60924,-1.12112 -0.16651,-0.30586 -0.44062,-0.49636 -0.75,-0.64947 -1.16382,-0.57608 -2.4758,-0.23142 -3.29072,0.93275 -0.80962,1.15676 -1.27705,2.47826 -1.61572,3.83399 -0.74224,2.9725 -0.48401,5.81413 1.20474,8.4522 0.53904,0.84278 1.23472,1.47108 2.19498,1.77165 1.15429,0.36089 2.35444,-0.0582 2.90795,-0.99836 0.29316,-0.49742 0.40181,-1.02129 -0.0882,-1.43475 -0.43039,-0.36266 -0.86536,-0.20637 -1.30104,0.11959" />
    <path
       inkscape:connector-curvature="0"
       id="path5422"
       style="fill:#446b0d;fill-opacity:1;fill-rule:nonzero;stroke:none;stroke-width:0.03527778"
       d="m 123.61842,114.27058 c -0.47166,0.29104 -0.63112,0.84243 -0.34608,1.40193 0.27976,0.54857 0.77718,0.69745 1.33844,0.61878 1.00648,-0.14147 1.96674,-0.46602 2.83951,-0.97579 0.72073,-0.42121 0.76306,-1.03152 0.0318,-1.43122 -0.55774,-0.30444 -0.59161,-0.64664 -0.56409,-1.1497 0.0808,-1.49084 -0.0586,-2.97145 -0.24306,-4.44994 -0.1838,-1.47567 -0.34255,-2.95486 -0.52,-4.43159 -0.0589,-0.48966 -0.0476,-0.84314 0.48366,-1.18392 0.69568,-0.44556 0.54081,-1.05446 -0.23389,-1.3522 -0.50659,-0.19473 -1.03999,-0.14393 -1.7085,-0.16475 -0.28893,0.0289 -0.7232,0.0452 -1.14618,0.12206 -0.4131,0.0751 -0.68121,0.35066 -0.74189,0.77541 -0.0547,0.38241 0.14182,0.71543 0.47484,0.79763 0.59337,0.14605 0.70626,0.46073 0.68968,1.03046 -0.0854,2.92841 0.10583,5.85223 0.21484,8.77676 0.0233,0.63147 0.11465,1.19451 -0.56903,1.61608" />
    <path
       inkscape:connector-curvature="0"
       id="path5426"
       style="fill:#446b0d;fill-opacity:1;fill-rule:nonzero;stroke:none;stroke-width:0.03527778"
       d="m 84.246292,101.73029 -0.0042,-10e-4 c 0.276225,1.09961 0.865364,2.10467 0.981428,3.25261 0.167922,-1.2326 -0.432153,-2.23378 -0.977194,-3.2512" />
    <path
       inkscape:connector-curvature="0"
       id="path5430"
       style="fill:#446b0d;fill-opacity:1;fill-rule:nonzero;stroke:none;stroke-width:0.03527778"
       d="m 84.242058,101.72888 -0.0028,-0.0102 c -0.291394,-0.29527 -0.585964,-0.58737 -0.914753,-0.84243 0.168275,0.43356 0.466373,0.72566 0.917575,0.85266" />
    <path
       inkscape:connector-curvature="0"
       id="path5452"
       style="fill:#446b0d;fill-opacity:1;fill-rule:nonzero;stroke:none;stroke-width:0.03527778"
       d="m 83.327306,102.41433 -0.0074,-0.002 c 0.282928,0.63183 0.702028,1.21532 0.69462,1.95086 0.0194,-0.0557 0.03669,-0.10865 0.05292,-0.15981 0.204611,-0.75776 -0.331611,-1.25059 -0.740127,-1.78893" />
    <path
       inkscape:connector-curvature="0"
       id="path5480"
       style="fill:#446b0d;fill-opacity:1;fill-rule:nonzero;stroke:none;stroke-width:0.03527778"
       d="m 83.025328,102.12364 -0.01305,-0.004 v 3.5e-4 l 0.01587,0.007 -0.0028,-0.004" />
    <path
       inkscape:connector-curvature="0"
       id="path5482"
       style="fill:#446b0d;fill-opacity:1;fill-rule:nonzero;stroke:none;stroke-width:0.03527778"
       d="m 83.034853,102.12999 -0.0067,-0.003 0.01305,0.0169 z" />
    <path
       inkscape:connector-curvature="0"
       id="path5450"
       style="fill:#446b0d;fill-opacity:1;fill-rule:nonzero;stroke:none;stroke-width:0.03527778"
       d="m 83.334706,102.41633 c 0.408516,0.53834 0.944739,1.03117 0.740127,1.78893 0.281517,-0.87559 0.174978,-1.08549 -0.734836,-1.79281 l 0.0025,0.006 -0.0078,-0.003" />
    <path
       inkscape:connector-curvature="0"
       id="path5452-1"
       style="fill:#446b0d;fill-opacity:1;fill-rule:nonzero;stroke:none;stroke-width:0.03527778"
       d="m 83.334706,102.41633 -0.0074,-0.002 c 0.282928,0.63182 0.702028,1.21532 0.69462,1.95086 0.0194,-0.0557 0.03669,-0.10866 0.05292,-0.15981 0.204612,-0.75777 -0.331611,-1.2506 -0.740127,-1.78894" />
    <path
       inkscape:connector-curvature="0"
       id="path5458"
       style="fill:#446b0d;fill-opacity:1;fill-rule:nonzero;stroke:none;stroke-width:0.03527778"
       d="m 83.020028,102.12246 -3.52e-4,-3.5e-4 v 3.5e-4 -3.5e-4 l 0.01305,0.004 c -0.146757,-0.21308 -0.420159,-0.15557 -0.611365,-0.27375 0.161219,0.1845 0.371122,0.26529 0.607131,0.29104 l -0.0085,-0.0205" />
    <path
       inkscape:connector-curvature="0"
       id="path5464"
       style="fill:#446b0d;fill-opacity:1;fill-rule:nonzero;stroke:none;stroke-width:0.03527778"
       d="m 83.318478,102.39516 3.52e-4,3.5e-4 -3.52e-4,-3.5e-4 0.01976,0.0155 c -0.05998,-0.13476 -0.158402,-0.22824 -0.295985,-0.27869 l 0.0064,0.0141 -0.02011,-0.003 c 0.04692,0.14746 0.14605,0.23883 0.298802,0.27129 l -0.0085,-0.0183 -3.52e-4,-7.1e-4" />
    <path
       inkscape:connector-curvature="0"
       id="path5454"
       style="fill:#446b0d;fill-opacity:1;fill-rule:nonzero;stroke:none;stroke-width:0.03527778"
       d="m 83.02005,102.12708 0.0074,0.002 c -0.114997,-0.28649 -0.3503,-0.31683 -0.618764,-0.27591 v 3.6e-4 c 0.191206,0.11818 0.464608,0.0607 0.611364,0.27375" />
    <path
       inkscape:connector-curvature="0"
       id="path5464-8"
       style="fill:#446b0d;fill-opacity:1;fill-rule:nonzero;stroke:none;stroke-width:0.03527778"
       d="m 83.31883,102.39551 3.52e-4,3.6e-4 -3.52e-4,-3.6e-4 0.01976,0.0155 c -0.05998,-0.13476 -0.158402,-0.22824 -0.295985,-0.27869 l 0.0064,0.0141 -0.02011,-0.003 c 0.04692,0.14746 0.14605,0.23883 0.298802,0.27129 l -0.0085,-0.0183 -3.52e-4,-7.1e-4" />
    <path
       inkscape:connector-curvature="0"
       id="path5464-1"
       style="fill:#446b0d;fill-opacity:1;fill-rule:nonzero;stroke:none;stroke-width:0.03527778"
       d="m 83.339036,102.39852 3.52e-4,3.5e-4 -3.52e-4,-3.5e-4 0.01976,0.0155 c -0.05997,-0.13477 -0.158397,-0.22825 -0.295981,-0.2787 l 0.0063,0.0141 -0.02011,-0.003 c 0.04692,0.14746 0.14605,0.23883 0.298803,0.27129 l -0.0085,-0.0183 -3.52e-4,-7.1e-4" />
    <path
       inkscape:connector-curvature="0"
       id="path5428"
       style="fill:#446b0d;fill-opacity:1;fill-rule:nonzero;stroke:none;stroke-width:0.03527778"
       d="m 84.239333,101.71814 -0.0011,-0.003 3.52e-4,3.5e-4 -3.52e-4,-3.5e-4 0.0042,0.005 0.01023,0.0116 c -0.147461,-0.46073 -0.455083,-0.74789 -0.928158,-0.85549 0.328789,0.25506 0.623358,0.54716 0.914753,0.84244" />
    <path
       inkscape:connector-curvature="0"
       id="path5424"
       style="fill:#446b0d;fill-opacity:1;fill-rule:nonzero;stroke:none;stroke-width:0.03527778"
       d="m 84.246326,101.73069 c 0.545042,1.01741 1.145117,2.0186 0.977194,3.25121 0.330906,-1.28059 -0.109713,-2.32869 -0.970844,-3.2498 l 3.53e-4,7.1e-4 -0.0067,-0.002" />
    <path
       inkscape:connector-curvature="0"
       id="path5444"
       style="fill:#446b0d;fill-opacity:1;fill-rule:nonzero;stroke:none;stroke-width:0.03527778"
       d="m 85.197747,105.19043 c -0.2794,0.22931 -0.0053,0.63147 -0.269522,0.86536 0.293864,-0.22472 0.330553,-0.52987 0.269522,-0.86536" />
    <path
       inkscape:connector-curvature="0"
       id="path5446"
       style="fill:#446b0d;fill-opacity:1;fill-rule:nonzero;stroke:none;stroke-width:0.03527778"
       d="m 84.928225,106.05579 c 0.26423,-0.23389 -0.0099,-0.63606 0.269522,-0.86536 -0.334081,0.21237 -0.283986,0.54433 -0.269522,0.86536" />
    <path
       inkscape:connector-curvature="0"
       id="path5452-2"
       style="fill:#446b0d;fill-opacity:1;fill-rule:nonzero;stroke:none;stroke-width:0.03527778"
       d="m 83.318467,102.39504 -0.0074,-0.002 c 0.282928,0.63183 0.702028,1.21532 0.694619,1.95086 0.0194,-0.0557 0.03669,-0.10865 0.05292,-0.1598 0.204611,-0.75777 -0.331611,-1.2506 -0.740128,-1.78894" />
  </g>
</svg>
